<svg width="1442" height="252" viewBox="0 0 1442 252" fill="none" xmlns="http://www.w3.org/2000/svg">
<path d="M1244.21 171.545C1318.96 158.448 1406.55 177.003 1441 187.917V251.75H1V2C73.3445 9.49219 119.852 71.0946 131.478 110.22C140.961 142.132 141.383 164.886 191.766 171.545C242.418 178.24 302.472 156.936 353.286 128.077C393.936 104.99 454.625 118.457 479.888 128.077C524.673 144.819 598.445 156.172 657.699 139.079C731.766 117.713 772.675 123.817 866.12 139.079C959.565 154.341 950.091 164.053 1028.03 187.917C1105.98 211.781 1150.76 187.917 1244.21 171.545Z" fill="url(#paint0_linear_5720_102619)"/>
<path d="M1441 187.917C1406.55 177.003 1318.96 158.448 1244.21 171.545C1150.76 187.917 1105.98 211.781 1028.03 187.917C950.091 164.053 959.565 154.341 866.12 139.079C772.675 123.817 731.766 117.713 657.699 139.079C598.445 156.172 524.673 144.819 479.888 128.077C454.625 118.457 393.936 104.99 353.286 128.077C302.472 156.936 242.418 178.24 191.766 171.545C141.383 164.886 140.961 142.132 131.478 110.22C119.852 71.0946 73.3445 9.49219 0.999986 2" stroke="url(#paint1_linear_5720_102619)" stroke-width="3"/>
<defs>
<linearGradient id="paint0_linear_5720_102619" x1="1441" y1="137.35" x2="1.00001" y2="137.35" gradientUnits="userSpaceOnUse">
<stop stop-color="#EF32D9"/>
<stop offset="1" stop-color="#89FFFD"/>
</linearGradient>
<linearGradient id="paint1_linear_5720_102619" x1="1441" y1="108.22" x2="1.00001" y2="108.22" gradientUnits="userSpaceOnUse">
<stop stop-color="#EF32D9"/>
<stop offset="1" stop-color="#89FFFD"/>
</linearGradient>
</defs>
</svg>
