<svg width="1442" height="158" viewBox="0 0 1442 158" fill="none" xmlns="http://www.w3.org/2000/svg">
<path d="M1244.21 107.732C1318.96 99.5646 1406.55 111.136 1441 117.942V157.75H1V2C73.3445 6.6723 119.852 45.089 131.478 69.4888C140.961 89.3894 141.383 103.579 191.766 107.732C242.418 111.908 302.472 98.6215 353.286 80.6245C393.936 66.227 454.625 74.6255 479.888 80.6245C524.673 91.0651 598.445 98.1456 657.699 87.4858C731.766 74.1611 772.675 77.9682 866.12 87.4858C959.565 97.0035 950.091 103.06 1028.03 117.942C1105.98 132.824 1150.76 117.942 1244.21 107.732Z" fill="url(#paint0_linear_8202_1098)"/>
<path d="M1441 117.942C1406.55 111.136 1318.96 99.5646 1244.21 107.732C1150.76 117.942 1105.98 132.824 1028.03 117.942C950.091 103.06 959.565 97.0035 866.12 87.4858C772.675 77.9682 731.766 74.1611 657.699 87.4858C598.445 98.1456 524.673 91.0651 479.888 80.6245C454.625 74.6255 393.936 66.227 353.286 80.6245C302.472 98.6215 242.418 111.908 191.766 107.732C141.383 103.579 140.961 89.3894 131.478 69.4888C119.852 45.089 73.3445 6.6723 0.999986 2" stroke="url(#paint1_linear_8202_1098)" stroke-width="3"/>
<path d="M196.514 109.268C122.244 103.364 35.2257 111.728 1 116.647V157.553H1441V60.7543C1369.13 64.1314 1308.07 63.2557 1296.52 80.8917C1287.1 95.2757 1286.68 105.532 1236.62 108.534C1186.3 111.552 1157.05 93.8998 1106.57 80.8917C1066.18 70.4852 998.163 84.0268 973.064 88.3628C928.571 95.9092 827.424 79.4441 783.59 66.5014C721 48.0206 638.689 46.3303 576.525 66.5014C514.361 86.6725 452.699 70.135 375.264 80.8917C297.828 91.6484 289.351 116.647 196.514 109.268Z" fill="url(#paint2_linear_8202_1098)" fill-opacity="0.59"/>
<path d="M196.514 109.268C122.244 103.364 35.2257 111.728 1 116.647V157.553H1441V60.7543C1369.13 64.1314 1308.07 63.2557 1296.52 80.8917C1287.1 95.2757 1286.68 105.532 1236.62 108.534C1186.3 111.552 1157.05 93.8998 1106.57 80.8917C1066.18 70.4852 998.163 84.0268 973.064 88.3628C928.571 95.9092 827.424 79.4441 783.59 66.5014C721 48.0206 638.689 46.3303 576.525 66.5014C514.361 86.6725 452.699 70.135 375.264 80.8917C297.828 91.6484 289.351 116.647 196.514 109.268Z" fill="black" fill-opacity="0.2"/>
<path d="M1 116.73C35.1849 111.804 122.1 103.43 196.281 109.341C289.008 116.73 297.475 91.6991 374.818 80.9287C452.162 70.1582 513.749 86.7169 575.84 66.5199C637.93 46.323 720.143 48.0155 782.659 66.5199C826.44 79.4793 927.466 95.9654 971.907 88.4094C996.976 84.0678 1064.91 70.5089 1105.25 80.9287C1155.67 93.9534 1184.89 111.628 1235.15 108.606C1285.15 105.601 1285.57 95.3311 1294.98 80.9287C1306.51 63.2701 1367.5 64.147 1439.29 60.7655" stroke="url(#paint3_linear_8202_1098)" stroke-width="3"/>
<defs>
<linearGradient id="paint0_linear_8202_1098" x1="1441" y1="86.4073" x2="1.00001" y2="86.4073" gradientUnits="userSpaceOnUse">
<stop stop-color="#EF32D9"/>
<stop offset="1" stop-color="#89FFFD"/>
</linearGradient>
<linearGradient id="paint1_linear_8202_1098" x1="1441" y1="68.2415" x2="1.00001" y2="68.2415" gradientUnits="userSpaceOnUse">
<stop stop-color="#EF32D9"/>
<stop offset="1" stop-color="#89FFFD"/>
</linearGradient>
<linearGradient id="paint2_linear_8202_1098" x1="-122.582" y1="53.1443" x2="528.667" y2="896.988" gradientUnits="userSpaceOnUse">
<stop stop-color="#3023AE"/>
<stop offset="1" stop-color="#C86DD7"/>
</linearGradient>
<linearGradient id="paint3_linear_8202_1098" x1="-122.435" y1="52.7017" x2="220.209" y2="759.999" gradientUnits="userSpaceOnUse">
<stop stop-color="#3023AE"/>
<stop offset="1" stop-color="#C86DD7"/>
</linearGradient>
</defs>
</svg>
