<svg width="1440" height="235" viewBox="0 0 1440 235" fill="none" xmlns="http://www.w3.org/2000/svg">
<path d="M195.514 127.457C121.244 114.369 34.2257 132.91 0 143.817V234.5H1440V19.9074C1368.13 27.3941 1307.07 25.4526 1295.52 64.5498C1286.1 96.4376 1285.68 119.175 1235.62 125.83C1185.3 132.52 1156.05 93.3874 1105.57 64.5498C1065.18 41.4798 997.163 71.5 972.064 81.1125C927.571 97.842 826.424 61.3408 782.59 32.648C720 -8.32192 637.689 -12.0692 575.525 32.648C513.361 77.3652 451.699 40.7034 374.264 64.5498C296.828 88.3963 288.351 143.817 195.514 127.457Z" fill="url(#paint0_linear_5720_102623)" fill-opacity="0.59"/>
<path d="M195.514 127.457C121.244 114.369 34.2257 132.91 0 143.817V234.5H1440V19.9074C1368.13 27.3941 1307.07 25.4526 1295.52 64.5498C1286.1 96.4376 1285.68 119.175 1235.62 125.83C1185.3 132.52 1156.05 93.3874 1105.57 64.5498C1065.18 41.4798 997.163 71.5 972.064 81.1125C927.571 97.842 826.424 61.3408 782.59 32.648C720 -8.32192 637.689 -12.0692 575.525 32.648C513.361 77.3652 451.699 40.7034 374.264 64.5498C296.828 88.3963 288.351 143.817 195.514 127.457Z" fill="black" fill-opacity="0.2"/>
<defs>
<linearGradient id="paint0_linear_5720_102623" x1="-123.582" y1="3.03672" x2="1176.82" y2="763.096" gradientUnits="userSpaceOnUse">
<stop stop-color="#3023AE"/>
<stop offset="1" stop-color="#C86DD7"/>
</linearGradient>
</defs>
</svg>
