<svg width="1441" height="236" viewBox="0 0 1441 236" fill="none" xmlns="http://www.w3.org/2000/svg">
<path d="M196.514 128.457C122.244 115.369 35.2257 133.91 1 144.817V235.5H1441V20.9074C1369.13 28.3941 1308.07 26.4526 1296.52 65.5498C1287.1 97.4376 1286.68 120.175 1236.62 126.83C1186.3 133.52 1157.05 94.3874 1106.57 65.5498C1066.18 42.4798 998.163 72.5 973.064 82.1125C928.571 98.842 827.424 62.3408 783.59 33.648C721 -7.32192 638.689 -11.0692 576.525 33.648C514.361 78.3652 452.699 41.7034 375.264 65.5498C297.828 89.3963 289.351 144.817 196.514 128.457Z" fill="url(#paint0_linear_5720_102622)" fill-opacity="0.59"/>
<path d="M196.514 128.457C122.244 115.369 35.2257 133.91 1 144.817V235.5H1441V20.9074C1369.13 28.3941 1308.07 26.4526 1296.52 65.5498C1287.1 97.4376 1286.68 120.175 1236.62 126.83C1186.3 133.52 1157.05 94.3874 1106.57 65.5498C1066.18 42.4798 998.163 72.5 973.064 82.1125C928.571 98.842 827.424 62.3408 783.59 33.648C721 -7.32192 638.689 -11.0692 576.525 33.648C514.361 78.3652 452.699 41.7034 375.264 65.5498C297.828 89.3963 289.351 144.817 196.514 128.457Z" fill="black" fill-opacity="0.2"/>
<path d="M1 145C35.1849 134.079 122.1 115.515 196.281 128.619C289.008 145 297.475 89.5088 374.818 65.6318C452.162 41.7548 513.749 78.4636 575.84 33.6892C637.93 -11.0853 720.143 -7.33322 782.659 33.6892C826.44 62.4187 927.466 98.9666 971.907 82.2157C996.976 72.5909 1064.91 42.5322 1105.25 65.6318C1155.67 94.5063 1184.89 133.689 1235.15 126.99C1285.15 120.327 1285.57 97.5605 1294.98 65.6318C1306.51 26.4846 1367.5 28.4285 1439.29 20.9323" stroke="url(#paint1_linear_5720_102622)" stroke-width="2"/>
<defs>
<linearGradient id="paint0_linear_5720_102622" x1="-122.582" y1="4.03672" x2="1177.82" y2="764.096" gradientUnits="userSpaceOnUse">
<stop stop-color="#3023AE"/>
<stop offset="1" stop-color="#C86DD7"/>
</linearGradient>
<linearGradient id="paint1_linear_5720_102622" x1="-122.435" y1="3.05564" x2="843.1" y2="902.103" gradientUnits="userSpaceOnUse">
<stop stop-color="#3023AE"/>
<stop offset="1" stop-color="#C86DD7"/>
</linearGradient>
</defs>
</svg>
