<svg width="1440" height="146" viewBox="0 0 1440 146" fill="none" xmlns="http://www.w3.org/2000/svg">
<path d="M1 145C35.1849 134.079 122.1 115.515 196.281 128.619C289.008 145 297.475 89.5088 374.818 65.6318C452.162 41.7548 513.749 78.4636 575.84 33.6892C637.93 -11.0853 720.143 -7.33322 782.659 33.6892C826.44 62.4187 927.466 98.9666 971.907 82.2157C996.976 72.5909 1064.91 42.5322 1105.25 65.6318C1155.67 94.5063 1184.89 133.689 1235.15 126.99C1285.15 120.327 1285.57 97.5605 1294.98 65.6318C1306.51 26.4846 1367.5 28.4285 1439.29 20.9323" stroke="url(#paint0_linear_5720_102624)" stroke-width="2"/>
<defs>
<linearGradient id="paint0_linear_5720_102624" x1="-122.435" y1="3.05564" x2="843.1" y2="902.103" gradientUnits="userSpaceOnUse">
<stop stop-color="#3023AE"/>
<stop offset="1" stop-color="#C86DD7"/>
</linearGradient>
</defs>
</svg>
