<svg width="60" height="61" viewBox="0 0 60 61" fill="none" xmlns="http://www.w3.org/2000/svg">
<path d="M44.2057 9.892C49.1959 12.3437 50.5408 20.0602 45.8419 24.7053C40.4299 30.0549 33.7947 27.0495 31.5961 31.5246C29.397 36.0005 35.8309 39.4149 34.9042 46.9681C34.0989 53.5264 27.1693 57.1774 22.1791 54.7257L19.1364 53.2308L16.0938 51.736C11.1043 49.2847 9.75866 41.5678 14.4576 36.9227C19.8696 31.5731 26.5049 34.5794 28.7038 30.1036C30.9023 25.6288 24.468 22.2133 25.3949 14.6597C26.2002 8.10141 33.1305 4.45082 38.12 6.90212L41.1627 8.39697L44.2057 9.892M44.9615 8.35356L38.8762 5.36387C36.0761 3.98817 32.6186 4.13335 29.628 5.75248C26.3643 7.51861 24.1465 10.7707 23.6944 14.4515C23.1588 18.8181 24.7706 21.9369 26.0665 24.4427C27.2485 26.7299 27.8347 27.9873 27.1667 29.347C26.4979 30.7083 25.1451 31.0121 22.612 31.4741C19.8368 31.9803 16.3825 32.6105 13.254 35.7023C10.6165 38.3094 9.39782 42.0529 9.99454 45.7152C10.5402 49.0726 12.5382 51.898 15.3383 53.2737L21.4236 56.2634C24.2242 57.6393 27.6816 57.4941 30.672 55.8753C33.9354 54.109 36.1531 50.8569 36.6052 47.1761C37.1409 42.8095 35.5294 39.6909 34.2332 37.1849C33.0512 34.8977 32.465 33.6403 33.1334 32.2798C33.8018 30.9194 35.1547 30.6151 37.6877 30.1536C40.4632 29.6475 43.9171 29.0172 47.0457 25.9253C49.6831 23.3182 50.9018 19.5748 50.3055 15.9127C49.7601 12.5549 47.7624 9.72964 44.9615 8.35356V8.35356Z" fill="url(#paint0_linear_5720_102630)"/>
<path d="M33.7586 48.4697C32.0829 48.0364 30.9905 47.6434 30.1234 47.1866C30.1054 47.1773 30.0868 47.1672 30.0677 47.1564C30.0231 47.1327 29.9791 47.1078 29.9349 47.0834C27.3653 45.6605 25.7862 41.5151 27.0411 38.9608L30.8699 31.1675C32.1303 28.602 34.61 28.1494 37.2356 27.671C38.4977 27.4411 39.8425 27.1946 41.1907 26.7005C37.7994 24.1705 36.165 21.6556 33.7716 19.8815C31.4853 18.188 28.4605 17.6579 26.207 17.5225C26.4973 19.7726 27.4427 21.6117 28.3089 23.2855C29.5341 25.6565 30.6921 27.8959 29.4318 30.4611L25.603 38.2544C24.4544 40.5923 22.6203 40.9441 20.859 40.3004C20.7153 40.2391 20.5721 40.1798 20.4281 40.1238C20.4008 40.1118 20.3732 40.1014 20.3468 40.0885C20.2429 40.0392 20.1347 40.0013 20.0242 39.9701C17.9369 39.2235 15.8126 38.9998 13.8644 38.9092C12.6126 40.7723 12.1126 43.0246 12.4852 45.3119C12.901 47.8647 14.3841 49.9951 16.4516 51.0109L22.5373 54.0007C24.606 55.0171 27.1978 54.8886 29.4723 53.6576C31.5677 52.5224 33.073 50.681 33.7588 48.4698L33.7586 48.4697Z" fill="url(#paint1_linear_5720_102630)"/>
<defs>
<linearGradient id="paint0_linear_5720_102630" x1="16.9177" y1="26.8071" x2="41.4078" y2="38.8389" gradientUnits="userSpaceOnUse">
<stop stop-color="#EF32D9"/>
<stop offset="1" stop-color="#89FFFD"/>
</linearGradient>
<linearGradient id="paint1_linear_5720_102630" x1="16.7222" y1="32.9085" x2="36.7021" y2="42.7245" gradientUnits="userSpaceOnUse">
<stop stop-color="#EF32D9"/>
<stop offset="1" stop-color="#89FFFD"/>
</linearGradient>
</defs>
</svg>
