<svg width="69" height="60" viewBox="0 0 69 60" fill="none" xmlns="http://www.w3.org/2000/svg">
<path d="M0.287109 35.5C0.287109 15.8939 16.181 0 35.7871 0H60.2871V24.5C60.2871 44.1061 44.3932 60 24.7871 60H0.287109V35.5Z" fill="url(#paint0_linear_6335_106524)"/>
<path d="M25.5358 23.052C24.8507 20.7683 24.5081 19.6264 24.8016 18.7315C25.0046 18.1128 25.4033 17.577 25.9375 17.2048C26.7104 16.6665 27.9025 16.6665 30.2868 16.6665V16.6665C32.6711 16.6665 33.8632 16.6665 34.636 17.2048C35.1703 17.577 35.569 18.1128 35.7719 18.7315C36.0655 19.6264 35.7229 20.7683 35.0378 23.052L32.381 31.9079C32.1751 32.5945 32.0721 32.9378 31.8064 33.1355C31.5406 33.3332 31.1822 33.3332 30.4654 33.3332H30.1082C29.3914 33.3332 29.0329 33.3332 28.7672 33.1355C28.5015 32.9378 28.3985 32.5945 28.1925 31.9079L25.5358 23.052Z" fill="#4F4F4F" stroke="#4F4F4F" stroke-width="2"/>
<ellipse cx="30.2874" cy="41.6668" rx="3.33333" ry="3.33333" fill="#4F4F4F" stroke="#4F4F4F" stroke-width="2"/>
<circle cx="65.0389" cy="4.36456" r="2.5" transform="rotate(-12.3671 65.0389 4.36456)" fill="url(#paint1_linear_6335_106524)"/>
<circle cx="65.7753" cy="12.3929" r="2.5" transform="rotate(-12.3671 65.7753 12.3929)" fill="url(#paint2_linear_6335_106524)"/>
<circle cx="65.536" cy="20.6356" r="2.5" transform="rotate(-12.3671 65.536 20.6356)" fill="url(#paint3_linear_6335_106524)"/>
<defs>
<linearGradient id="paint0_linear_6335_106524" x1="0.287108" y1="63.7652" x2="78.7999" y2="31.7908" gradientUnits="userSpaceOnUse">
<stop stop-color="#01A8C4"/>
<stop offset="1" stop-color="#FBFE7F"/>
</linearGradient>
<linearGradient id="paint1_linear_6335_106524" x1="62.5389" y1="7.17833" x2="69.0817" y2="4.51379" gradientUnits="userSpaceOnUse">
<stop stop-color="#01A8C4"/>
<stop offset="1" stop-color="#FBFE7F"/>
</linearGradient>
<linearGradient id="paint2_linear_6335_106524" x1="63.2753" y1="15.2066" x2="69.818" y2="12.5421" gradientUnits="userSpaceOnUse">
<stop stop-color="#01A8C4"/>
<stop offset="1" stop-color="#FBFE7F"/>
</linearGradient>
<linearGradient id="paint3_linear_6335_106524" x1="63.036" y1="23.4493" x2="69.5788" y2="20.7848" gradientUnits="userSpaceOnUse">
<stop stop-color="#01A8C4"/>
<stop offset="1" stop-color="#FBFE7F"/>
</linearGradient>
</defs>
</svg>
