<svg width="206" height="51" viewBox="0 0 206 51" fill="none" xmlns="http://www.w3.org/2000/svg">
<g clip-path="url(#clip0_6523_106248)">
<path fill-rule="evenodd" clip-rule="evenodd" d="M42.3916 7.95923L42.6521 9.58718C42.8474 11.0849 42.9451 12.5826 42.9126 14.1129C42.9126 17.4664 42.5218 20.7874 41.7404 24.0433C40.6986 28.4388 38.8753 32.6389 36.3682 36.4157C33.4705 40.7135 29.2704 44.9135 23.1819 48.3648L22.433 48.7881L21.6842 48.3648C15.5957 44.9787 11.3956 40.746 8.49786 36.4157C5.95827 32.6389 4.16753 28.4713 3.12565 24.0433C2.34424 20.7874 1.95353 17.4664 1.95353 14.1129C1.95353 12.6152 2.01865 11.0849 2.214 9.58718L2.44191 7.95923C2.47447 7.829 2.47447 7.69876 2.44191 7.56853C2.40935 7.43829 2.3768 7.30806 2.27912 7.21038C2.214 7.1127 2.11632 7.01503 2.01865 6.94991C1.92097 6.88479 1.79074 6.85223 1.69306 6.81967C1.56282 6.78711 1.43259 6.78711 1.30235 6.81967C1.17212 6.85223 1.04188 6.91735 0.944206 6.98247C0.84653 7.04758 0.748853 7.14526 0.683736 7.24294C0.618618 7.37317 0.586059 7.50341 0.5535 7.63364L0.29303 9.26159C0.0976765 10.857 0 12.4849 0 14.1129C0 17.6292 0.423265 21.113 1.23724 24.5317C1.79074 26.8434 2.53959 29.1225 3.4838 31.3039C4.428 33.4854 5.56756 35.5692 6.90247 37.5552C9.96301 42.1135 14.391 46.5741 20.7725 50.0904L21.9772 50.7741C22.14 50.8393 22.3028 50.8718 22.4656 50.8718C22.6284 50.8718 22.7912 50.8393 22.954 50.7741L24.1587 50.0904C30.5076 46.5415 34.9682 42.0809 38.0287 37.5552C40.6986 33.5831 42.6195 29.1551 43.694 24.5317C44.5079 21.113 44.8986 17.6292 44.8986 14.1129C44.8986 12.4849 44.801 10.857 44.6056 9.22903L44.3451 7.60109C44.3126 7.47085 44.28 7.34061 44.2149 7.21038C44.1498 7.1127 44.0521 7.01503 43.9544 6.94991C43.8568 6.88479 43.7265 6.81967 43.5963 6.78711C43.466 6.75456 43.3358 6.75456 43.2056 6.78711C43.0753 6.81967 42.9451 6.85223 42.8149 6.91735C42.7172 6.98247 42.6195 7.08014 42.5544 7.17782C42.4893 7.2755 42.4242 7.40573 42.3916 7.53597V7.95923Z" fill="white"/>
<path fill-rule="evenodd" clip-rule="evenodd" d="M7.91204 6.85231L22.4984 2.26151L37.3778 6.94999C37.5081 6.98255 37.6383 6.98255 37.7685 6.98255C37.8988 6.98255 38.029 6.94999 38.1592 6.88487C38.2895 6.81975 38.3872 6.75463 38.4848 6.6244C38.5825 6.52672 38.6476 6.39649 38.6476 6.26625C38.6802 6.13602 38.6802 6.00578 38.6802 5.87554C38.6802 5.74531 38.6476 5.61507 38.5825 5.48484C38.5174 5.3546 38.4523 5.25693 38.3546 5.15925C38.2569 5.06157 38.1267 4.99646 37.9964 4.99646L22.7915 0.177745C22.5961 0.112627 22.4007 0.112627 22.2054 0.177745L7.35854 4.86622C7.22831 4.89878 7.13063 4.9639 7.00039 5.02901C6.90272 5.12669 6.80504 5.22437 6.77248 5.3546C6.70736 5.48484 6.6748 5.61507 6.6748 5.74531C6.6748 5.87554 6.6748 6.00578 6.70736 6.13602C6.73992 6.26625 6.80504 6.39649 6.87016 6.49416C6.93528 6.59184 7.06551 6.68952 7.19575 6.75463C7.29342 6.81975 7.42366 6.85231 7.58645 6.85231C7.65157 6.88487 7.78181 6.88487 7.91204 6.85231Z" fill="white"/>
<path fill-rule="evenodd" clip-rule="evenodd" d="M0.715987 8.25283L21.5862 50.3189C21.6513 50.4817 21.7816 50.6119 21.9118 50.7096C22.2374 50.905 22.6281 50.905 22.9537 50.7096C23.1165 50.6119 23.2467 50.4817 23.3444 50.3189L36.0749 25.7369L36.1075 25.7044L44.2472 8.22027C44.3123 8.09003 44.3449 7.9598 44.3449 7.82956C44.3449 7.69932 44.3449 7.56909 44.2797 7.43885C44.2472 7.30862 44.1821 7.17838 44.0844 7.08071C44.0193 6.98303 43.889 6.88535 43.7914 6.82023C43.6937 6.75512 43.5634 6.72256 43.4007 6.72256C43.2704 6.72256 43.1402 6.72256 43.0099 6.75512C42.8797 6.78768 42.7495 6.85279 42.6518 6.95047C42.5541 7.04815 42.4564 7.14582 42.4239 7.27606L34.2842 24.7602L22.4327 47.6491L2.44161 7.27606C2.37649 7.17838 2.27881 7.04815 2.21369 6.95047C2.11602 6.85279 1.98578 6.78768 1.85555 6.75512C1.72531 6.69 1.59508 6.69 1.46484 6.72256C1.33461 6.72256 1.20437 6.75512 1.07413 6.82023C0.976458 6.88535 0.846223 6.98303 0.781105 7.08071C0.715987 7.17838 0.65087 7.30862 0.618311 7.43885C0.585752 7.56909 0.553193 7.69932 0.585752 7.82956C0.618311 7.99235 0.65087 8.12259 0.715987 8.25283Z" fill="white"/>
<path fill-rule="evenodd" clip-rule="evenodd" d="M10.7121 27.0065H33.9592C34.0894 27.0065 34.2196 26.9739 34.3499 26.9414C34.4801 26.9088 34.5778 26.8111 34.6429 26.7135C34.7406 26.6158 34.8057 26.5181 34.8382 26.3879C34.9359 26.1274 34.9359 25.8669 34.8382 25.6065C34.8057 25.4762 34.708 25.3786 34.6429 25.2809C34.5452 25.1832 34.4475 25.1181 34.3499 25.053C34.2196 25.0204 34.0894 24.9878 33.9592 24.9878H10.7121C10.5819 24.9878 10.4516 25.0204 10.3214 25.053C10.1912 25.0855 10.0935 25.1832 10.0284 25.2809C9.9307 25.3786 9.86558 25.4762 9.83302 25.6065C9.73535 25.8669 9.73535 26.1274 9.83302 26.3879C9.86558 26.5181 9.9307 26.6158 10.0284 26.7135C10.1261 26.8111 10.2237 26.8763 10.3214 26.9414C10.4516 26.9739 10.5819 26.9739 10.7121 27.0065ZM75.5043 18.2482H60.397C60.2667 18.2482 60.1365 18.2807 60.0063 18.3133C59.876 18.3458 59.7783 18.4435 59.7132 18.5412C59.6156 18.6389 59.5504 18.7365 59.5179 18.8668C59.4853 18.997 59.4528 19.1273 59.4528 19.2575V31.7927C59.4528 31.9229 59.4853 32.0531 59.5179 32.1834C59.5504 32.3136 59.6156 32.4113 59.7132 32.5089C59.8109 32.6066 59.9086 32.6717 60.0063 32.7369C60.1365 32.7694 60.2667 32.802 60.397 32.802H75.5043V34.9183H60.397C60.2016 34.9183 60.0063 34.8857 59.8109 34.8532C59.6156 34.8206 59.4202 34.7555 59.2248 34.6904C59.0295 34.6253 58.8667 34.5276 58.7039 34.4299C58.5411 34.2997 58.4109 34.1695 58.2481 34.0392C57.955 33.7462 57.7597 33.4206 57.5969 33.0625C57.5318 32.8671 57.4667 32.6717 57.4341 32.4764C57.4015 32.281 57.369 32.0857 57.369 31.8903V19.29C57.369 19.0947 57.4015 18.8993 57.4341 18.704C57.4667 18.5086 57.5318 18.3133 57.5969 18.1179C57.662 17.9226 57.7597 17.7272 57.8574 17.5644C57.955 17.4016 58.0853 17.2388 58.2481 17.1086C58.3783 16.9784 58.5411 16.8481 58.7039 16.7179C58.8667 16.6202 59.0295 16.5225 59.2248 16.4574C59.4202 16.3923 59.6156 16.3272 59.8109 16.2946C60.0063 16.2621 60.2016 16.2295 60.397 16.2295H75.5043V18.2482ZM103.863 16.1318V18.2482H89.3092V24.4669H100.998V26.6158H89.3092V32.8345H103.863V34.9509H87.2906V16.1318H103.863Z" fill="white"/>
<path d="M133.849 19.3223V24.8247C133.849 25.0201 133.817 25.2154 133.784 25.4108C133.752 25.6061 133.687 25.8015 133.622 25.9968C133.556 26.1922 133.459 26.3875 133.361 26.5503C133.231 26.7131 133.133 26.8759 132.97 27.0062C132.84 27.1364 132.677 27.2666 132.515 27.3969C132.352 27.4945 132.189 27.5922 131.994 27.6573C131.798 27.7225 131.603 27.7876 131.408 27.8527C131.212 27.8852 131.017 27.9178 130.822 27.9178H128.054L133.752 34.918H131.017L125.352 27.9178H118.71C118.384 27.9178 118.058 27.8852 117.733 27.8201V34.918H115.682V16.1641H130.854C131.049 16.1641 131.245 16.1966 131.44 16.2292C131.635 16.2617 131.831 16.3269 132.026 16.392C132.222 16.4571 132.384 16.5548 132.547 16.685C132.873 16.9129 133.133 17.2059 133.361 17.5315C133.459 17.6943 133.556 17.8897 133.622 18.085C133.687 18.2804 133.752 18.4757 133.784 18.6711C133.817 18.899 133.849 19.1269 133.849 19.3223ZM118.677 25.834H130.822C130.952 25.834 131.082 25.8015 131.212 25.7689C131.342 25.7364 131.44 25.6712 131.505 25.541C131.603 25.4433 131.668 25.3457 131.701 25.2154C131.733 25.0852 131.766 24.955 131.766 24.8247V19.3223C131.766 19.0618 131.668 18.8013 131.505 18.606C131.342 18.4106 131.082 18.2804 130.822 18.2804H118.677C118.547 18.2804 118.417 18.3129 118.286 18.3455C118.156 18.3781 118.058 18.4757 117.993 18.5734C117.896 18.6711 117.831 18.7688 117.798 18.899C117.765 19.0292 117.733 19.1595 117.733 19.2897V24.7922C117.733 25.0526 117.831 25.3131 118.058 25.5085C118.189 25.7038 118.449 25.834 118.677 25.834Z" fill="white"/>
<path fill-rule="evenodd" clip-rule="evenodd" d="M144.725 16.1318H162.892V18.2482H154.85V34.9183H152.799V18.2482H144.725V16.1318ZM173.962 34.9509V16.1644H176.014V34.9509H173.962ZM203.331 16.1318H205.968L198.382 25.5414L206 34.9509H203.331L196.558 26.6158H190.698V34.9509H188.647V16.1644H190.73V24.4995H196.591L203.331 16.1318Z" fill="white"/>
</g>
<defs>
<clipPath id="clip0_6523_106248">
<rect width="206" height="50.743" fill="white" transform="translate(0 0.128906)"/>
</clipPath>
</defs>
</svg>
