<svg width="206" height="37" viewBox="0 0 206 37" fill="none" xmlns="http://www.w3.org/2000/svg">
<g clip-path="url(#clip0_6523_106245)">
<path d="M30.6983 21.9504C30.0834 22.3261 29.366 22.3945 28.8194 22.087C28.1362 21.6771 27.7263 20.7547 27.7263 19.4908V15.6306C27.7263 13.7859 27.0089 12.4536 25.7791 12.112C23.6953 11.4971 22.1239 14.0592 21.5432 15.0157L17.8538 20.9255V13.6493C17.8196 11.9754 17.273 10.9847 16.2482 10.6772C15.565 10.4723 14.5402 10.5748 13.5495 12.0778L5.3167 25.264C4.22355 23.1802 3.64281 20.8572 3.64281 18.5001C3.64281 10.5406 10.0309 4.08418 17.8538 4.08418C25.6766 4.08418 32.0647 10.5406 32.0647 18.5001V18.5684C32.1331 20.1057 31.6548 21.3355 30.6983 21.9504ZM35.2076 18.5001V18.4318C35.1734 8.76423 27.3847 0.873047 17.8538 0.873047C8.32286 0.873047 0.5 8.76423 0.5 18.5001C0.5 28.236 8.2887 36.1272 17.8538 36.1272C22.2605 36.1272 26.4282 34.4533 29.6393 31.413C30.2884 30.7981 30.3225 29.8074 29.7076 29.1583C29.1269 28.5093 28.1362 28.4751 27.4872 29.0559L27.453 29.09C24.8568 31.5496 21.3724 32.9502 17.7855 32.9502C13.5837 32.9502 9.82595 31.1055 7.22971 28.1677L14.6426 16.2796V21.7796C14.6426 24.41 15.6675 25.264 16.5215 25.5031C17.3755 25.7422 18.6736 25.5714 20.0742 23.351L24.1394 16.7579C24.276 16.5529 24.3785 16.348 24.5152 16.2113V19.5591C24.5152 22.0187 25.5058 24 27.2139 24.9565C28.7511 25.8447 30.6983 25.7422 32.3039 24.7516C34.2852 23.4535 35.3442 21.1988 35.2076 18.5001ZM59.3935 12.4878C59.8035 12.7269 60.1792 13.3076 60.1792 13.8201C60.1792 14.6399 59.496 15.3231 58.7103 15.3231C58.5053 15.3231 58.3345 15.2548 58.1637 15.2207C57.2414 14.5374 56.0799 14.0933 54.8501 14.0933C51.9464 14.0933 49.9651 16.4505 49.9651 19.3883C49.9651 22.3261 51.9806 24.6491 54.8501 24.6491C56.2849 24.6491 57.583 24.0683 58.5395 23.146C58.7786 22.9752 59.0861 22.8727 59.3935 22.8727C60.1792 22.8727 60.7941 23.4876 60.7941 24.2733C60.7941 24.7857 60.4867 25.2298 60.1109 25.4689C58.7103 26.6646 56.8314 27.4503 54.8843 27.4503C50.4433 27.4503 46.8223 23.7951 46.8223 19.2858C46.8223 14.7766 50.4433 11.1213 54.8843 11.1213C56.524 11.0872 58.0954 11.5996 59.3935 12.4878ZM67.5238 15.9039C70.5642 15.9039 73.0921 18.4659 73.0921 21.6429C73.0921 24.8199 70.53 27.4844 67.5238 27.4844C64.3469 27.4844 61.7165 24.8199 61.7165 21.6429C61.7165 18.4659 64.3469 15.9039 67.5238 15.9039ZM67.4897 24.6491C68.822 24.6491 69.9493 23.3851 69.9493 21.6771C69.9493 19.969 68.822 18.8759 67.4897 18.8759C66.0549 18.8759 64.8593 19.9349 64.8593 21.6771C64.8593 23.4193 66.0549 24.6491 67.4897 24.6491ZM75.0051 25.7081V17.6461C75.0051 16.7579 75.6883 16.0405 76.5765 16.0405C77.4647 16.0405 78.1479 16.7579 78.1479 17.6461V25.7081C78.1479 26.5963 77.4305 27.3136 76.5765 27.3136C75.7225 27.3136 75.0051 26.5621 75.0051 25.7081ZM74.766 13.0002C74.766 11.9412 75.5858 11.1213 76.5765 11.1213C77.5672 11.1213 78.4212 11.9754 78.4212 13.0002C78.4212 14.025 77.6013 14.8449 76.5765 14.8449C75.5517 14.8107 74.766 13.9909 74.766 13.0002ZM84.1602 21.3355V25.7081C84.1602 26.5963 83.4428 27.3136 82.5888 27.3136C81.7348 27.3136 81.0174 26.5963 81.0174 25.7081V17.2703C81.0174 16.5871 81.564 16.0405 82.2472 16.0405C82.9304 16.0405 83.4428 16.6213 83.4428 17.2703C84.7068 16.0747 85.8341 15.9039 86.8931 15.9039C90.0359 15.9039 91.4365 18.261 91.4365 20.9597V25.7081C91.4365 26.5963 90.7191 27.3136 89.8651 27.3136C89.0111 27.3136 88.2937 26.5963 88.2937 25.7081V21.3355C88.2937 19.969 88.1229 18.8076 86.1416 18.8076C84.741 18.8076 84.1602 19.969 84.1602 21.3355ZM101.616 23.0094C101.241 23.0094 101.002 22.8386 100.797 22.5994L97.1414 18.6368V25.7081C97.1414 26.5963 96.424 27.3136 95.57 27.3136C94.716 27.3136 93.9986 26.5963 93.9986 25.7081V11.7021C94.1011 11.4629 94.3402 11.2921 94.5793 11.2921C94.8526 11.2921 95.0917 11.5313 95.2625 11.7021L101.104 18.261C101.275 18.466 101.48 18.5684 101.616 18.5684C101.719 18.5684 101.958 18.466 102.129 18.261L107.97 11.7021C108.141 11.5313 108.346 11.2921 108.654 11.2921C108.927 11.2921 109.166 11.4629 109.234 11.7021V25.7081C109.234 26.5963 108.551 27.3136 107.663 27.3136C106.775 27.3136 106.092 26.5963 106.092 25.7081V18.6368L102.436 22.5994C102.163 22.8386 101.924 23.0094 101.616 23.0094ZM116.716 24.6491C118.116 24.6491 119.312 23.3851 119.312 21.6771C119.312 19.969 118.082 18.8417 116.716 18.8417C115.349 18.8417 114.222 20.0032 114.222 21.6771C114.222 23.351 115.315 24.6491 116.716 24.6491ZM120.063 26.0838L119.995 25.7081C119.38 26.9037 117.433 27.4503 116.203 27.4503C113.265 27.4503 111.079 24.7857 111.079 21.6088C111.079 18.4318 113.3 15.8697 116.374 15.8697C116.886 15.8697 118.663 16.0064 120.029 17.6119L120.098 17.2362C120.098 16.5529 120.61 16.0064 121.293 16.0064C121.976 16.0064 122.523 16.5871 122.523 17.2362V26.0497C122.523 26.7329 121.976 27.2795 121.293 27.2795C120.576 27.3136 120.063 26.7329 120.063 26.0838ZM131.166 18.8076H130.824C128.843 18.91 128.467 20.0374 128.467 21.3355V25.7081C128.467 26.5963 127.75 27.3136 126.896 27.3136C126.042 27.3136 125.324 26.5963 125.324 25.7081V17.2703C125.324 16.5871 125.871 16.0405 126.554 16.0405C127.237 16.0405 127.75 16.6213 127.75 17.2703C128.911 16.1772 129.868 15.938 130.824 15.9039H131.132C131.883 15.9039 132.566 16.5529 132.566 17.3728C132.6 18.1243 131.917 18.8076 131.166 18.8076ZM143.293 24.9565C143.43 25.1957 143.532 25.4348 143.532 25.7081C143.532 26.5279 142.78 27.2795 141.961 27.2795C141.414 27.2795 140.936 26.8695 140.56 26.3913L136.939 22.1895V25.6739C136.939 26.5621 136.222 27.2795 135.368 27.2795C134.514 27.2795 133.796 26.5621 133.796 25.6739V12.8635C133.796 11.9754 134.479 11.258 135.368 11.258C136.256 11.258 136.939 11.9754 136.939 12.8635V20.8572L140.56 16.8604C140.936 16.4505 141.38 16.0064 141.926 16.0064C142.712 16.0064 143.43 16.7237 143.43 17.5436C143.43 17.7827 143.361 18.056 143.225 18.261L140.355 21.4038L143.293 24.9565ZM149.442 18.8417C148.588 18.8417 147.187 19.2858 147.187 20.6181H151.731C151.696 19.2858 150.262 18.8417 149.442 18.8417ZM153.541 22.6336H147.187C147.187 24.5124 148.998 24.8199 149.783 24.8199C150.364 24.8199 151.184 24.7174 151.833 24.41C152.038 24.2733 152.346 24.1708 152.653 24.1708C153.336 24.1708 153.917 24.7516 153.917 25.4689C153.917 25.9472 153.609 26.3571 153.234 26.5963C152.277 27.3136 151.013 27.4844 149.818 27.4844C146.641 27.4844 144.01 25.7764 144.01 21.7796C144.01 18.6368 145.616 15.9039 149.374 15.9039C152.414 15.9039 154.703 17.8852 154.771 21.4038C154.771 22.0529 154.224 22.6336 153.541 22.6336ZM162.286 27.4503H161.432C159.041 27.4503 157.64 26.3913 157.64 22.6677V18.8076H156.821C156.069 18.8076 155.42 18.1243 155.42 17.3728C155.42 16.5529 156.103 15.9039 156.821 15.9039H157.64V12.9319C157.64 12.0437 158.324 11.3263 159.212 11.3263C160.1 11.3263 160.783 12.0437 160.783 12.9319V15.9039H162.081C162.833 15.9039 163.482 16.5529 163.482 17.3728C163.482 18.1243 162.799 18.8076 162.081 18.8076H160.783V22.0529C160.783 24.205 160.886 24.6491 161.842 24.6491H162.286C163.038 24.6491 163.687 25.264 163.687 26.0497C163.687 26.8354 163.038 27.4503 162.286 27.4503ZM177.488 12.4878C177.898 12.7269 178.274 13.3076 178.274 13.8201C178.274 14.6399 177.59 15.3231 176.805 15.3231C176.6 15.3231 176.429 15.2548 176.258 15.2207C175.336 14.5374 174.174 14.0933 172.945 14.0933C170.041 14.0933 168.06 16.4505 168.06 19.3883C168.06 22.3261 170.075 24.6491 172.945 24.6491C174.379 24.6491 175.677 24.0683 176.634 23.146C176.873 22.9752 177.181 22.8727 177.488 22.8727C178.274 22.8727 178.889 23.4876 178.889 24.2733C178.889 24.7857 178.581 25.2298 178.205 25.4689C176.805 26.6646 174.926 27.4503 172.979 27.4503C168.538 27.4503 164.917 23.7951 164.917 19.2858C164.917 14.7766 168.538 11.1213 172.979 11.1213C174.618 11.0872 176.224 11.5996 177.488 12.4878ZM185.448 24.6491C186.848 24.6491 188.044 23.3851 188.044 21.6771C188.044 19.969 186.814 18.8417 185.448 18.8417C184.081 18.8417 182.954 20.0032 182.954 21.6771C182.954 23.351 184.081 24.6491 185.448 24.6491ZM188.795 26.0838L188.727 25.7081C188.112 26.9037 186.165 27.4503 184.935 27.4503C181.997 27.4503 179.811 24.7857 179.811 21.6088C179.811 18.4318 182.031 15.8697 185.106 15.8697C185.618 15.8697 187.395 16.0064 188.761 17.6119L188.829 17.2362C188.829 16.5529 189.342 16.0064 190.025 16.0064C190.708 16.0064 191.255 16.5871 191.255 17.2362V26.0497C191.255 26.7329 190.708 27.2795 190.025 27.2795C189.308 27.3136 188.795 26.7329 188.795 26.0838ZM199.829 24.6491C201.23 24.6491 202.323 23.3168 202.323 21.6771C202.323 20.0374 201.196 18.8417 199.829 18.8417C198.463 18.8417 197.233 19.969 197.233 21.6771C197.233 23.3851 198.429 24.6491 199.829 24.6491ZM197.233 26.5279V30.5248C197.233 31.413 196.516 32.1303 195.662 32.1303C194.808 32.1303 194.09 31.413 194.09 30.5248V17.2703C194.09 16.5871 194.637 16.0405 195.32 16.0405C196.003 16.0405 196.516 16.6213 196.516 17.407C197.677 16.2113 199.112 15.9039 200.205 15.9039C203.245 15.9039 205.5 18.4659 205.5 21.6429C205.5 24.8199 203.348 27.4844 200.376 27.4844C199.454 27.4503 198.087 27.177 197.233 26.5279Z" fill="white"/>
</g>
<defs>
<clipPath id="clip0_6523_106245">
<rect width="205" height="35.2541" fill="white" transform="translate(0.5 0.873047)"/>
</clipPath>
</defs>
</svg>
