<svg width="228" height="77" viewBox="0 0 228 77" fill="none" xmlns="http://www.w3.org/2000/svg">
<g clip-path="url(#clip0_6523_106256)">
<path d="M1.69674 31.1826C2.82791 33.7277 5.51442 36.7677 10.1098 36.7677C14.7051 36.7677 17.7451 33.3035 17.7451 28.991C17.7451 19.164 0.919069 23.4059 0.919069 10.8217C0.919069 4.88307 5.37302 0.711914 12.5135 0.711914C15.907 0.711914 18.3107 1.48959 20.4316 3.25703C19.7953 4.45889 19.4419 5.73145 19.0177 7.71098H18.3814C17.6037 5.73145 16.0484 2.69145 12.0186 2.69145C7.98883 2.69145 5.09023 5.44865 5.09023 9.33702C5.09023 19.3761 21.9163 15.2049 21.9163 27.0114C21.9163 33.5156 17.0381 39.03 8.83721 39.03C4.38325 39.03 1.90884 37.4747 0 35.99C0.636279 34.364 0.777674 33.2328 0.989767 31.2533H1.69674V31.1826Z" fill="white"/>
<path d="M46.5192 2.76274C38.1768 2.76274 31.814 7.99436 31.814 19.8716C31.814 31.7488 38.2475 37.0511 46.5899 37.0511C54.9322 37.0511 61.3657 31.7488 61.3657 19.8716C61.295 7.99436 54.9322 2.76274 46.5192 2.76274ZM46.5192 0.783203C58.3257 0.783203 66.5266 7.78227 66.5266 19.8716C66.5266 29.8399 60.9415 36.3441 52.4578 38.3236C56.2754 41.3636 60.2345 44.4743 64.5471 47.5143C62.7089 47.6557 60.9415 48.7869 60.3759 49.706C56.4875 46.1711 52.5285 42.5655 48.0745 38.9599C47.5089 39.0306 47.0848 39.0306 46.5192 39.0306C34.7834 39.0306 26.5117 32.0316 26.5117 19.9423C26.5824 7.78227 34.7834 0.783203 46.5192 0.783203Z" fill="white"/>
<path d="M101.522 1.48926C102.229 1.63065 102.936 1.77205 103.714 1.77205C104.279 1.77205 104.845 1.70135 105.34 1.48926C104.916 6.43809 104.491 15.8409 104.35 23.6176C104.209 33.0911 98.7649 39.0297 89.15 39.0297C78.5453 39.0297 73.8793 34.0809 73.8793 23.759C73.8793 20.4362 74.1621 17.9618 74.1621 15.346C74.1621 9.47809 73.95 4.59995 73.8086 1.48926C74.657 1.63065 75.7174 1.77205 76.5658 1.77205C77.3435 1.77205 78.1918 1.70135 78.8281 1.48926C78.4746 4.67065 78.1918 11.8818 78.1918 19.7999C78.1918 27.0818 78.1919 36.4846 90.0691 36.4846C101.946 36.4846 101.734 25.5264 101.734 18.8102C101.876 8.62972 101.876 3.53949 101.522 1.48926Z" fill="white"/>
<path d="M115.59 15.2757C115.59 10.6803 115.378 6.01429 115.166 1.41895C116.085 1.56034 116.933 1.70174 117.782 1.70174C118.63 1.70174 119.479 1.56034 120.398 1.41895C120.186 6.01429 119.973 10.6803 119.973 15.2757V24.4664C119.973 29.0617 120.186 33.7278 120.398 38.3231C119.479 38.1817 118.63 38.0403 117.782 38.0403C116.933 38.0403 116.085 38.1817 115.166 38.3231C115.378 33.7278 115.59 29.0617 115.59 24.4664V15.2757Z" fill="white"/>
<path d="M134.821 18.3157C135.81 18.5278 137.012 18.5985 138.426 18.5985C142.809 18.5985 148.607 16.7603 148.607 10.3975C148.607 4.81243 143.941 3.39848 140.335 3.39848C137.861 3.39848 136.305 3.53987 135.174 3.68127C135.033 7.56964 134.821 11.3873 134.821 15.2757V18.3157ZM130.437 15.2757C130.437 10.6803 130.225 6.01429 130.013 1.41895C132.063 1.56034 134.043 1.70174 136.093 1.70174C138.143 1.70174 140.123 1.41895 142.173 1.41895C148.182 1.41895 153.273 3.53987 153.273 9.83196C153.273 16.6896 146.344 19.5175 142.314 20.0124C144.93 23.2645 153.838 34.7882 156.949 38.2524C155.888 38.111 154.828 37.9696 153.767 37.9696C152.778 37.9696 151.717 38.111 150.657 38.2524C148.536 35.0003 141.395 25.1733 136.8 20.5073H134.75V24.3957C134.75 28.991 134.962 33.6571 135.174 38.2524C134.255 38.111 133.407 37.9696 132.558 37.9696C131.71 37.9696 130.861 38.111 129.942 38.2524C130.154 33.6571 130.367 28.991 130.367 24.3957V15.2757H130.437Z" fill="white"/>
<path d="M163.099 15.205C163.099 10.6096 162.887 5.94359 162.675 1.41895C165.857 1.56034 169.038 1.70174 172.219 1.70174C175.401 1.70174 178.582 1.56034 181.693 1.41895C181.622 1.98453 181.551 2.47941 181.551 3.04499C181.551 3.61057 181.622 4.10546 181.693 4.67104C177.239 4.31755 174.552 3.96406 167.624 3.96406C167.553 6.22639 167.412 8.13522 167.412 10.751C167.412 13.5082 167.483 16.4775 167.483 17.8208C173.775 17.8208 177.31 17.538 180.491 17.2552C180.35 17.8208 180.35 18.3864 180.35 18.8813C180.35 19.4468 180.42 19.9417 180.491 20.5073C176.815 20.1538 170.098 20.0124 167.483 20.0124C167.412 21.285 167.412 22.6282 167.412 27.7185C167.412 31.7482 167.483 34.364 167.553 35.7073C172.29 35.7073 178.582 35.6366 181.976 35.0003C181.834 35.4952 181.834 36.2022 181.834 36.6264C181.834 37.1213 181.905 37.6868 181.976 38.1817C178.794 38.0403 175.613 37.8989 172.361 37.8989C169.109 37.8989 165.927 38.0403 162.604 38.1817C162.817 33.5157 163.029 28.9203 163.029 24.325V15.205H163.099Z" fill="white"/>
<path d="M2.75721 65.1887C3.39349 65.3301 4.24186 65.4714 4.94884 65.4714C7.49395 65.4714 10.6753 64.5524 10.6753 60.3105C10.6753 56.7756 8.69581 56.0687 5.51442 56.0687H2.75721V65.1887ZM0.212093 62.9263C0.212093 60.3105 0.0706977 57.624 0 54.9375C0.989767 55.0082 1.97953 55.0789 2.9693 55.0789C3.95907 55.0789 5.9386 54.9375 6.78698 54.9375C8.62511 54.9375 13.5033 55.0082 13.5033 60.0984C13.5033 65.4714 8.20093 66.5319 5.23163 66.5319C4.31256 66.5319 3.53488 66.5319 2.75721 66.4612V68.158C2.75721 70.7738 2.8986 73.4603 2.9693 76.0761C2.47442 76.0054 1.97953 75.9347 1.48465 75.9347C0.989767 75.9347 0.494884 76.0054 0 76.0761C0.141395 73.4603 0.212093 70.7738 0.212093 68.158V62.9263Z" fill="white"/>
<path d="M22.3401 58.6839L19.0173 66.4606C20.0778 66.4606 21.2796 66.5313 22.3401 66.5313C23.4713 66.5313 24.6731 66.5313 25.8043 66.4606L22.3401 58.6839ZM23.3299 54.5127C26.3699 61.6532 30.9652 72.8234 32.5913 76.0755C32.0257 76.0048 31.5308 75.9341 30.9652 75.9341C30.3996 75.9341 29.9048 76.0048 29.3392 76.0755C28.7736 73.9546 27.2889 70.5611 26.1578 67.8746C24.8145 67.8746 23.4713 67.8039 22.128 67.8039C20.8555 67.8039 19.6536 67.8039 18.381 67.8746C17.1085 71.0559 15.9066 74.1666 15.4117 76.0755C14.9876 76.0048 14.6341 75.9341 14.2806 75.9341C13.9271 75.9341 13.5736 76.0048 13.1494 76.0755C16.4015 68.8643 19.6536 61.7239 22.7643 54.5127H23.3299Z" fill="white"/>
<path d="M38.1065 62.926C38.1065 60.805 38.1065 58.6841 38.0358 56.5632C35.9149 56.5632 33.1577 56.7046 31.4609 56.9167C31.5316 56.6339 31.6023 56.2804 31.6023 55.9269C31.6023 55.6441 31.5316 55.2906 31.4609 55.0078C34.0768 55.0785 36.7633 55.1492 39.3791 55.1492C41.9949 55.1492 44.6814 55.0785 47.2972 55.0078C47.2265 55.3613 47.1558 55.6441 47.1558 55.9976C47.1558 56.2804 47.2265 56.6339 47.2972 56.9167C45.6005 56.7046 42.8433 56.5632 40.7223 56.5632C40.6516 58.6841 40.6516 60.805 40.6516 62.926V68.2283C40.6516 70.8441 40.793 73.5306 40.8637 76.1464C40.3688 76.0757 39.874 76.005 39.3791 76.005C38.8842 76.005 38.3893 76.0757 37.8944 76.1464C38.0358 73.5306 38.1065 70.8441 38.1065 68.2283V62.926Z" fill="white"/>
<path d="M55.1446 62.926C55.1446 60.805 55.1446 58.6841 55.0739 56.5632C52.953 56.5632 50.1958 56.7046 48.499 56.9167C48.5697 56.6339 48.6404 56.2804 48.6404 55.9269C48.6404 55.6441 48.5697 55.2906 48.499 55.0078C51.1148 55.0785 53.8014 55.1492 56.4172 55.1492C59.033 55.1492 61.7195 55.0785 64.3353 55.0078C64.2646 55.3613 64.1939 55.6441 64.1939 55.9976C64.1939 56.2804 64.2646 56.6339 64.3353 56.9167C62.6386 56.7046 59.8813 56.5632 57.7604 56.5632C57.6897 58.6841 57.6897 60.805 57.6897 62.926V68.2283C57.6897 70.8441 57.8311 73.5306 57.9018 76.1464C57.4069 76.0757 56.912 76.005 56.4172 76.005C55.9223 76.005 55.4274 76.0757 54.9325 76.1464C55.0739 73.5306 55.1446 70.8441 55.1446 68.2283V62.926Z" fill="white"/>
<path d="M76.6364 55.6439C71.829 55.6439 68.1527 58.6839 68.1527 65.4708C68.1527 72.2578 71.829 75.2978 76.6364 75.2978C81.4439 75.2978 85.1201 72.2578 85.1201 65.4708C85.1201 58.6839 81.4439 55.6439 76.6364 55.6439ZM76.6364 54.5127C83.4234 54.5127 88.1601 58.5425 88.1601 65.5415C88.1601 72.5406 83.4234 76.4997 76.6364 76.4997C69.8494 76.4997 65.1834 72.4699 65.1834 65.5415C65.1127 58.5425 69.8494 54.5127 76.6364 54.5127Z" fill="white"/>
<path d="M109.723 76.4997C105.057 70.9852 99.4719 65.1173 94.2403 59.5322C94.2403 60.6634 94.1696 62.5015 94.1696 65.7536C94.1696 68.3694 94.311 74.8736 94.4524 76.0755C94.0989 76.0048 93.7454 75.9341 93.3919 75.9341C93.0384 75.9341 92.6849 76.0048 92.2607 76.0755C92.4728 74.6615 92.897 66.7434 92.897 62.7136C92.897 58.6839 92.897 55.8559 92.8263 54.5127H93.3212C98.3407 59.9564 105.128 67.3797 108.875 71.1266C108.875 65.6122 108.875 59.6736 108.663 54.9369C109.016 55.0076 109.37 55.0783 109.723 55.0783C110.077 55.0783 110.359 55.0076 110.713 54.9369C110.501 56.775 110.218 62.855 110.218 65.188C110.218 68.2987 110.289 75.0857 110.289 76.4997H109.723Z" fill="white"/>
<path d="M127.397 68.6528C127.397 70.7031 127.538 72.824 127.609 74.8742C128.387 74.9449 129.518 75.0156 130.649 75.0156C133.265 75.0156 135.598 73.1775 135.598 69.8547C135.598 66.5319 132.911 65.5422 128.811 65.5422H127.397V68.6528ZM129.023 64.3403C131.922 64.3403 134.891 63.3505 134.891 59.8863C134.891 56.4222 132.204 55.998 129.871 55.998C128.811 55.998 128.104 56.0687 127.538 56.1394C127.468 58.0482 127.326 60.0277 127.326 61.9366V64.2696H129.023V64.3403ZM124.852 62.8556C124.852 60.2398 124.71 57.5533 124.64 54.9375C125.7 55.0082 126.831 55.0789 127.892 55.0789C128.952 55.0789 130.083 54.9375 131.144 54.9375C134.679 54.9375 137.648 55.8566 137.648 59.3915C137.648 62.4315 135.527 64.0575 132.487 64.7645V64.8352C136.163 65.0473 138.355 66.4612 138.355 69.9961C138.355 74.5208 134.113 76.1468 130.578 76.1468C129.588 76.1468 128.599 76.0054 127.609 76.0054C126.619 76.0054 125.629 76.0761 124.64 76.1468C124.781 73.4603 124.852 70.7738 124.852 68.158V62.8556Z" fill="white"/>
<path d="M153.344 55.6439C148.536 55.6439 144.86 58.6839 144.86 65.4708C144.86 72.2578 148.536 75.2978 153.344 75.2978C158.151 75.2978 161.827 72.2578 161.827 65.4708C161.898 58.6839 158.222 55.6439 153.344 55.6439ZM153.344 54.5127C160.131 54.5127 164.867 58.5425 164.867 65.5415C164.867 72.5406 160.131 76.4997 153.344 76.4997C146.557 76.4997 141.891 72.4699 141.891 65.5415C141.891 58.6132 146.627 54.5127 153.344 54.5127Z" fill="white"/>
<path d="M186.783 58.6837C185.511 57.199 183.107 55.6437 179.996 55.6437C174.906 55.6437 171.018 58.6837 171.018 65.4706C171.018 71.4799 174.411 75.1562 180.208 75.1562C181.976 75.1562 184.097 74.8027 185.086 74.1664C185.086 72.9646 185.157 71.692 185.157 70.4195C185.157 69.0055 185.086 67.5209 185.016 66.1776C185.44 66.2483 186.005 66.319 186.5 66.319C186.995 66.319 187.419 66.319 187.844 66.1776C187.773 67.0967 187.702 69.0762 187.702 72.399V74.8734C185.935 75.5097 182.258 76.3581 179.855 76.3581C172.573 76.3581 167.978 72.5404 167.978 65.3292C167.978 58.1181 172.714 54.3711 179.996 54.3711C184.167 54.3711 186.359 55.3609 187.844 56.1385C187.561 56.7041 187.207 57.7646 187.137 58.4716H186.783V58.6837Z" fill="white"/>
<path d="M210.679 58.6837C209.406 57.199 207.002 55.6437 203.892 55.6437C198.801 55.6437 194.913 58.6837 194.913 65.4706C194.913 71.4799 198.307 75.1562 204.104 75.1562C205.871 75.1562 207.992 74.8027 208.982 74.1664C208.982 72.9646 209.053 71.692 209.053 70.4195C209.053 69.0055 208.982 67.5209 208.911 66.1776C209.335 66.2483 209.901 66.319 210.396 66.319C210.891 66.319 211.315 66.319 211.739 66.1776C211.668 67.0967 211.598 69.0762 211.598 72.399V74.8734C209.83 75.5097 206.154 76.3581 203.75 76.3581C196.468 76.3581 191.873 72.5404 191.873 65.3292C191.873 58.1181 196.61 54.3711 203.892 54.3711C208.063 54.3711 210.254 55.3609 211.739 56.1385C211.456 56.7041 211.103 57.7646 211.032 58.4716H210.679V58.6837Z" fill="white"/>
<path d="M216.264 72.0457C216.971 73.4597 218.456 75.2271 221.142 75.2271C223.829 75.2271 225.526 73.2476 225.526 70.7732C225.526 65.1173 215.84 67.5211 215.84 60.3099C215.84 56.9164 218.385 54.5127 222.486 54.5127C224.394 54.5127 225.808 54.9369 227.01 55.9266C226.657 56.6336 226.445 57.3406 226.162 58.4718H225.808C225.384 57.3406 224.465 55.5732 222.132 55.5732C219.799 55.5732 218.173 57.1285 218.173 59.3908C218.173 65.1173 227.859 62.7136 227.859 69.5006C227.859 73.2476 225.101 76.429 220.365 76.429C217.82 76.429 216.406 75.5099 215.274 74.6615C215.628 73.7425 215.769 73.1062 215.84 71.9043H216.264V72.0457Z" fill="white"/>
<path d="M216.193 1.98438C216.193 2.33786 216.052 2.69135 216.052 3.04484C216.052 10.3974 221.142 16.5481 227.929 18.3155C227.434 10.8923 222.768 4.67089 216.193 1.98438Z" fill="white"/>
<path d="M208.911 0.5C199.438 0.5 191.591 7.35767 190.035 16.3363C192.439 17.8916 195.337 18.8107 198.448 18.8107C207.215 18.8107 214.284 11.7409 214.284 2.97442C214.284 2.40884 214.143 1.84326 214.143 1.27767C212.446 0.853488 210.75 0.5 208.911 0.5Z" fill="#00A69D"/>
<path d="M208.912 38.9591C210.75 38.9591 212.447 38.6056 214.073 38.1815C214.143 37.6159 214.214 37.0503 214.214 36.4847C214.214 27.7182 207.144 20.6484 198.378 20.6484C195.267 20.6484 192.439 21.5675 189.965 23.1229C191.662 32.1015 199.438 38.9591 208.912 38.9591Z" fill="#00A69D"/>
<path d="M216.194 37.546C222.769 34.8595 227.435 28.6381 228 21.2148C221.143 22.9823 216.123 29.133 216.123 36.4855C216.123 36.839 216.194 37.1925 216.194 37.546Z" fill="white"/>
</g>
<defs>
<clipPath id="clip0_6523_106256">
<rect width="228" height="76" fill="white" transform="translate(0 0.5)"/>
</clipPath>
</defs>
</svg>
